<svg xmlns="http://www.w3.org/2000/svg" width="1874" height="970.513" viewBox="0 0 1874 970.513"><g transform="translate(-23 -110)"><rect width="28" height="32" transform="translate(23 994)" fill="#d8d4d4"/><line y2="54" transform="translate(37.5 1026.5)" fill="none" stroke="#d8d4d4" stroke-width="1"/><rect width="28" height="23" transform="translate(94 1019)" fill="#d8d4d4"/><line y2="38" transform="translate(108.5 1042.5)" fill="none" stroke="#d8d4d4" stroke-width="1"/><rect width="28" height="39" transform="translate(165 971)" fill="#d8d4d4"/><line y2="70" transform="translate(179.5 1010.5)" fill="none" stroke="#d8d4d4" stroke-width="1"/><rect width="28" height="75" transform="translate(236 935)" fill="#d8d4d4"/><line y2="76" transform="translate(250.5 1004.5)" fill="none" stroke="#d8d4d4" stroke-width="1"/><rect width="28" height="28" transform="translate(307 991)" fill="#d8d4d4"/><line y2="61" transform="translate(321.5 1019.5)" fill="none" stroke="#d8d4d4" stroke-width="1"/><rect width="28" height="32" transform="translate(378 927)" fill="#d8d4d4"/><line y2="121" transform="translate(392.5 959.5)" fill="none" stroke="#d8d4d4" stroke-width="1"/><rect width="28" height="24" transform="translate(450 895)" fill="#d8d4d4"/><line x1="1" y2="161" transform="translate(463.5 919.5)" fill="none" stroke="#d8d4d4" stroke-width="1"/><rect width="28" height="52" transform="translate(520 919)" fill="#d8d4d4"/><line y2="108" transform="translate(534.5 972.5)" fill="none" stroke="#d8d4d4" stroke-width="1"/><rect width="28" height="55" transform="translate(591 880)" fill="#d8d4d4"/><line y2="149" transform="translate(605.5 931.5)" fill="none" stroke="#d8d4d4" stroke-width="1"/><rect width="28" height="74" transform="translate(662 853)" fill="#d8d4d4"/><line y2="180" transform="translate(676.5 900.5)" fill="none" stroke="#d8d4d4" stroke-width="1"/><rect width="28" height="33" transform="translate(733 802)" fill="#d8d4d4"/><line y2="245" transform="translate(747.5 835.5)" fill="none" stroke="#d8d4d4" stroke-width="1"/><rect width="28" height="44" transform="translate(804 873)" fill="#d8d4d4"/><line y2="173" transform="translate(818.5 907.5)" fill="none" stroke="#d8d4d4" stroke-width="1"/><rect width="28" height="32" transform="translate(876 842)" fill="#d8d4d4"/><line x1="1" y2="207" transform="translate(889.5 873.5)" fill="none" stroke="#d8d4d4" stroke-width="1"/><rect width="28" height="88" transform="translate(941 746)" fill="#d8d4d4"/><line y2="253" transform="translate(960.5 827.5)" fill="none" stroke="#d8d4d4" stroke-width="1"/><rect width="28" height="61" transform="translate(1018 700)" fill="#d8d4d4"/><line x1="1" y2="328" transform="translate(1031.5 752.5)" fill="none" stroke="#d8d4d4" stroke-width="1"/><rect width="28" height="57" transform="translate(1088 790)" fill="#d8d4d4"/><line y2="238" transform="translate(1102.5 842.5)" fill="none" stroke="#d8d4d4" stroke-width="1"/><rect width="28" height="112" transform="translate(1160 657)" fill="#d8d4d4"/><line x1="1" y2="319" transform="translate(1173.5 761.5)" fill="none" stroke="#d8d4d4" stroke-width="1"/><rect width="28" height="129" transform="translate(1230 555)" fill="#d8d4d4"/><line y2="396" transform="translate(1244.5 684.5)" fill="none" stroke="#d8d4d4" stroke-width="1"/><rect width="28" height="31" transform="translate(1300 626)" fill="#d8d4d4"/><line x2="1" y2="431" transform="translate(1314.5 649.5)" fill="none" stroke="#d8d4d4" stroke-width="1"/><rect width="28" height="32" transform="translate(1372 681)" fill="#d8d4d4"/><line y2="375" transform="translate(1386.5 705.5)" fill="none" stroke="#d8d4d4" stroke-width="1"/><rect width="28" height="76" transform="translate(1442 608)" fill="#d8d4d4"/><line x2="1" y2="405" transform="translate(1456.5 675.5)" fill="none" stroke="#d8d4d4" stroke-width="1"/><rect width="28" height="93" transform="translate(1512 497)" fill="#d8d4d4"/><line x2="2" y2="490" transform="translate(1526.5 590.5)" fill="none" stroke="#d8d4d4" stroke-width="1"/><rect width="28" height="131" transform="translate(1600 366)" fill="#d8d4d4"/><line x1="15" y2="583" transform="translate(1599.5 497.5)" fill="none" stroke="#d8d4d4" stroke-width="1"/><rect width="28" height="152" transform="translate(1656 249)" fill="#d8d4d4"/><line y2="679" transform="translate(1670.5 401.5)" fill="none" stroke="#d8d4d4" stroke-width="1"/><rect width="28" height="76" transform="translate(1728 190)" fill="#d8d4d4"/><line x1="1" y2="831" transform="translate(1741.5 249.5)" fill="none" stroke="#d8d4d4" stroke-width="1"/><rect width="28" height="112" transform="translate(1799 228)" fill="#d8d4d4"/><line y2="740" transform="translate(1812.5 340.5)" fill="none" stroke="#d8d4d4" stroke-width="1"/><rect width="28" height="80" transform="translate(1869 110)" fill="#d8d4d4"/><line y2="904" transform="translate(1883.5 176.5)" fill="none" stroke="#d8d4d4" stroke-width="1"/></g></svg>