<svg xmlns="http://www.w3.org/2000/svg" width="510" height="323" viewBox="0 0 510 323"><g transform="translate(-1030 -316)"><g transform="translate(1030 316)" fill="#fff" stroke="#404040" stroke-width="3"><rect width="510" height="291" stroke="none"/><rect x="1.5" y="1.5" width="507" height="288" fill="none"/></g><rect width="176" height="32" transform="translate(1197 606)" fill="#404040"/><rect width="246" height="5" transform="translate(1162 634)" fill="#404040"/><rect width="26" height="259" transform="translate(1045 332)" fill="#404040"/><rect width="208" height="259" transform="translate(1315 332)" fill="#e5e5e5"/><rect width="179" height="18" rx="9" transform="translate(1080 559)" fill="#e5e5e5"/><rect width="102" height="5" rx="2.5" transform="translate(1080 345)" fill="#e5e5e5"/><rect width="28" height="8" rx="4" transform="translate(1330.5 470.5) rotate(-90)" fill="#4fe8c4"/><rect width="15" height="8" rx="4" transform="translate(1348.5 437.5) rotate(-90)" fill="#e84667"/><rect width="24" height="8" rx="4" transform="translate(1365.5 430.5) rotate(-90)" fill="#4fe8c4"/><rect width="24" height="8" rx="4" transform="translate(1390.5 445.5) rotate(-90)" fill="#e84667"/><rect width="13" height="8" rx="4" transform="translate(1407.5 455.5) rotate(-90)" fill="#e84667"/><rect width="16" height="8" rx="4" transform="translate(1428.5 437.5) rotate(-90)" fill="#4fe8c4"/><rect width="49" height="8" rx="4" transform="translate(1448.5 437.5) rotate(-90)" fill="#4fe8c4"/><rect width="26" height="8" rx="4" transform="translate(1469.5 429.5) rotate(-90)" fill="#e84667"/><rect width="18" height="8" rx="4" transform="translate(1490.5 403.5) rotate(-90)" fill="#4fe8c4"/><rect width="33" height="8" rx="4" transform="translate(1507.5 439.5) rotate(-90)" fill="#e84667"/><rect width="175" height="5" rx="2.5" transform="translate(1080 370)" fill="#e5e5e5"/><rect width="51" height="5" rx="2.5" transform="translate(1080 395)" fill="#e5e5e5"/><rect width="130" height="5" rx="2.5" transform="translate(1080 420)" fill="#e5e5e5"/><rect width="186" height="5" rx="2.5" transform="translate(1080 445)" fill="#e5e5e5"/><rect width="15" height="5" rx="2.5" transform="translate(1080 470)" fill="#e5e5e5"/><rect width="65" height="5" rx="2.5" transform="translate(1080 495)" fill="#e5e5e5"/><rect width="107" height="5" rx="2.5" transform="translate(1080 520)" fill="#e5e5e5"/><rect width="74" height="5" rx="2.5" transform="translate(1080 545)" fill="#e5e5e5"/><rect width="33" height="18" rx="9" transform="translate(1271 559)" fill="#e5e5e5"/></g></svg>