<svg xmlns="http://www.w3.org/2000/svg" width="208" height="82.5" viewBox="0 0 208 82.5"><g transform="translate(-1260 -262.5)"><g transform="translate(212 192.795)"><g transform="translate(1048 102.205)" fill="#68bbd9" stroke="#404040" stroke-width="2"><circle cx="25" cy="25" r="25" stroke="none"/><circle cx="25" cy="25" r="24" fill="none"/></g><path d="M25.835,15.8a4.964,4.964,0,0,0,0-1.8l1.092-.631a.306.306,0,0,0,.14-.36,6.35,6.35,0,0,0-1.4-2.429.309.309,0,0,0-.381-.059l-1.092.631a4.968,4.968,0,0,0-1.562-.9V8.984a.308.308,0,0,0-.241-.3,6.385,6.385,0,0,0-2.8,0,.308.308,0,0,0-.241.3v1.261a4.968,4.968,0,0,0-1.562.9l-1.092-.631a.309.309,0,0,0-.381.059A6.351,6.351,0,0,0,14.9,13a.312.312,0,0,0,.14.36l1.092.631a4.964,4.964,0,0,0,0,1.8l-1.092.631a.306.306,0,0,0-.14.36,6.382,6.382,0,0,0,1.4,2.429.309.309,0,0,0,.381.059l1.092-.631a4.968,4.968,0,0,0,1.562.9v1.261a.308.308,0,0,0,.241.3,6.385,6.385,0,0,0,2.8,0,.308.308,0,0,0,.241-.3V19.546a4.968,4.968,0,0,0,1.562-.9l1.092.631a.309.309,0,0,0,.381-.059,6.35,6.35,0,0,0,1.4-2.429.312.312,0,0,0-.14-.36L25.835,15.8Zm-4.845,1.151A2.052,2.052,0,1,1,23.042,14.9,2.054,2.054,0,0,1,20.989,16.948ZM9.479,10.833A5.417,5.417,0,1,0,4.062,5.417,5.416,5.416,0,0,0,9.479,10.833Zm8.514,9.585c-.1-.051-.195-.11-.288-.165l-.334.195a1.66,1.66,0,0,1-2.052-.309,7.716,7.716,0,0,1-1.7-2.945,1.655,1.655,0,0,1,.757-1.934l.334-.195q-.006-.165,0-.33l-.334-.195a1.653,1.653,0,0,1-.757-1.934c.038-.123.093-.245.135-.368-.161-.013-.317-.051-.482-.051h-.707a7.366,7.366,0,0,1-6.17,0H5.687A5.689,5.689,0,0,0,0,17.875v1.76a2.032,2.032,0,0,0,2.031,2.031h14.9a2.029,2.029,0,0,0,1.151-.36,1.648,1.648,0,0,1-.085-.5Z" transform="translate(1059.672 116.421)" fill="#fff"/></g><path d="M10.553,42.493c8.932-3.962,7.8-10.184,7.566-11.137H9a7.5,7.5,0,0,1-7.5-7.5V9A7.5,7.5,0,0,1,9,1.5H158A7.5,7.5,0,0,1,165.5,9V23.856a7.5,7.5,0,0,1-7.5,7.5H32.414c.339,2.08-5.829,11.939-16.495,11.939A18.938,18.938,0,0,1,10.553,42.493Z" transform="translate(1301 262.5)" fill="#fff" stroke="#404040" stroke-width="3"/><text transform="translate(1313 282.5)" fill="#858585" font-size="9" font-family="Montserrat-Regular, Montserrat"><tspan x="0" y="0">Can You Help With My Business</tspan></text></g></svg>