<svg xmlns="http://www.w3.org/2000/svg" width="211" height="81.5" viewBox="0 0 211 81.5"><g transform="translate(-1432 -545.5)"><g transform="translate(206.473 500)"><g transform="translate(1225.527 77)"><g fill="#68bbd9" stroke="#404040" stroke-width="2"><circle cx="25" cy="25" r="25" stroke="none"/><circle cx="25" cy="25" r="24" fill="none"/></g><path d="M9.3,11.283a5.485,5.485,0,0,0,5.314-5.642A5.485,5.485,0,0,0,9.3,0,5.485,5.485,0,0,0,3.986,5.642,5.485,5.485,0,0,0,9.3,11.283Zm3.72,1.41h-.693a6.848,6.848,0,0,1-6.053,0H5.58A5.761,5.761,0,0,0,0,18.618v1.834a2.058,2.058,0,0,0,1.993,2.116H16.607A2.058,2.058,0,0,0,18.6,20.451V18.618A5.761,5.761,0,0,0,13.02,12.694ZM26.43,7.035,25.276,5.8a.472.472,0,0,0-.7,0l-4.351,4.584L18.338,8.357a.472.472,0,0,0-.7,0l-1.167,1.23a.546.546,0,0,0,0,.74l3.392,3.627a.472.472,0,0,0,.7,0l5.866-6.179a.55.55,0,0,0,0-.74Z" transform="translate(11.272 13.681)" fill="#fff"/></g></g><path d="M10.553,42.493c8.932-3.962,7.8-10.184,7.566-11.137H9a7.5,7.5,0,0,1-7.5-7.5V9A7.5,7.5,0,0,1,9,1.5H158A7.5,7.5,0,0,1,165.5,9V23.856a7.5,7.5,0,0,1-7.5,7.5H32.414c.339,2.08-5.829,11.939-16.495,11.939A18.938,18.938,0,0,1,10.553,42.493Z" transform="translate(1476 545.5)" fill="#fff" stroke="#404040" stroke-width="3"/><text transform="translate(1486 564.5)" fill="#858585" font-size="10" font-family="Montserrat-Regular, Montserrat"><tspan x="0" y="0">I Have Enrolled In new course</tspan></text></g></svg>