<svg xmlns="http://www.w3.org/2000/svg" width="209" height="71.5" viewBox="0 0 209 71.5"><g transform="translate(-995 -448.5)"><g transform="translate(183 353.5)"><g transform="translate(812 117.5)" fill="#68bbd9"><path d="M 25 48 C 21.75709915161133 48 18.61190032958984 47.37786865234375 15.651780128479 46.15087890625 C 12.7934398651123 44.96609115600586 10.22649002075195 43.27005004882813 8.022259712219238 41.10990142822266 C 5.819429874420166 38.95112991333008 4.090250015258789 36.43796920776367 2.882760047912598 33.64023971557617 C 1.633450031280518 30.74562072753906 1 27.67040061950684 1 24.5 C 1 21.32959938049316 1.633450031280518 18.25437927246094 2.882760047912598 15.35976028442383 C 4.090250015258789 12.56202983856201 5.819429874420166 10.04887008666992 8.022259712219238 7.890100002288818 C 10.22649002075195 5.729949951171875 12.7934398651123 4.033919811248779 15.651780128479 2.849119901657104 C 18.61190032958984 1.622130036354065 21.75709915161133 1 25 1 C 28.24290084838867 1 31.38809967041016 1.622130036354065 34.34822082519531 2.849119901657104 C 37.20655822753906 4.033919811248779 39.77350997924805 5.729949951171875 41.97774124145508 7.890100002288818 C 44.18056869506836 10.04887008666992 45.90975189208984 12.56202983856201 47.11724090576172 15.35976028442383 C 48.36655044555664 18.25437927246094 49 21.32959938049316 49 24.5 C 49 27.67040061950684 48.36655044555664 30.74562072753906 47.11724090576172 33.64023971557617 C 45.90975189208984 36.43796920776367 44.18056869506836 38.95112991333008 41.97774124145508 41.10990142822266 C 39.77350997924805 43.27005004882813 37.20655822753906 44.96609115600586 34.34822082519531 46.15087890625 C 31.38809967041016 47.37786865234375 28.24290084838867 48 25 48 Z" stroke="none"/><path d="M 25 2 C 21.88916969299316 2 18.87281036376953 2.596488952636719 16.03469848632813 3.772899627685547 C 13.29497909545898 4.908519744873047 10.83470153808594 6.534038543701172 8.722190856933594 8.60430908203125 C 6.612480163574219 10.67182159423828 4.956718444824219 13.07801055908203 3.800899505615234 15.75601959228516 C 2.605911254882813 18.5247802734375 2 21.4666805267334 2 24.5 C 2 27.53330993652344 2.605911254882813 30.47521018981934 3.800899505615234 33.24396896362305 C 4.956718444824219 35.92198944091797 6.612480163574219 38.32817077636719 8.722190856933594 40.39569091796875 C 10.83470153808594 42.46595001220703 13.29499053955078 44.09146881103516 16.03469848632813 45.22710037231445 C 18.87281036376953 46.40351104736328 21.88916969299316 47 25 47 C 28.11083030700684 47 31.12718963623047 46.40351104736328 33.96530151367188 45.22710037231445 C 36.70500946044922 44.09146881103516 39.16529846191406 42.46595001220703 41.27780914306641 40.39569091796875 C 43.38751983642578 38.32817077636719 45.04328155517578 35.92198944091797 46.19910049438477 33.24396896362305 C 47.39408874511719 30.47521018981934 48 27.53330993652344 48 24.5 C 48 21.4666805267334 47.39408874511719 18.5247802734375 46.19910049438477 15.75601959228516 C 45.04328155517578 13.07801055908203 43.38751983642578 10.67182159423828 41.27780914306641 8.60430908203125 C 39.16529846191406 6.534038543701172 36.70502090454102 4.908519744873047 33.96530151367188 3.772899627685547 C 31.12718963623047 2.596488952636719 28.11083030700684 2 25 2 M 25 0 C 38.80712127685547 0 50 10.96902084350586 50 24.5 C 50 38.03096771240234 38.80712127685547 49 25 49 C 11.19287872314453 49 0 38.03096771240234 0 24.5 C 0 10.96902084350586 11.19287872314453 0 25 0 Z" stroke="none" fill="#404040"/></g><path d="M9.4,10.738A5.369,5.369,0,1,0,4.027,5.369,5.369,5.369,0,0,0,9.4,10.738Zm4.019,1.367L11.41,20.135l-1.342-5.7,1.342-2.349H7.383L8.725,14.43l-1.342,5.7L5.378,12.106A5.628,5.628,0,0,0,0,17.718v1.745a2.014,2.014,0,0,0,2.013,2.013H16.779a2.014,2.014,0,0,0,2.013-2.013V17.718a5.628,5.628,0,0,0-5.378-5.613Z" transform="translate(827.279 131.406)" fill="#fff"/></g><path d="M10.553,42.493c8.932-3.962,7.8-10.184,7.566-11.137H9a7.5,7.5,0,0,1-7.5-7.5V9A7.5,7.5,0,0,1,9,1.5H158A7.5,7.5,0,0,1,165.5,9V23.856a7.5,7.5,0,0,1-7.5,7.5H32.414c.339,2.08-5.829,11.939-16.495,11.939A18.938,18.938,0,0,1,10.553,42.493Z" transform="translate(1037 448.5)" fill="#fff" stroke="#404040" stroke-width="3"/><text transform="translate(1050 467.5)" fill="#858585" font-size="12" font-family="Montserrat-Regular, Montserrat"><tspan x="0" y="0">My Business has grown</tspan></text></g></svg>